#!OML:ASF E:\inclinewalkrobotboard\Project 1\Capture day 1\Session 1\subject1.ASF
:FULLY-SPECIFIED
:DEGREES
230
root 7.93499 17.2785 3.40567 -150.017 -39.643 157.346
lowerback -2.91232 0.353791 -7.41474
upperback -5.68128 0.326584 4.16579
thorax -4.41321 0.467781 8.60556
lowerneck -6.74759 -0.165694 -1.31886
upperneck -11.0198 -1.50832 -7.36537
head -2.41948 -0.891711 -2.13623
rclavicle 3.78685e-014 -6.36111e-015
rhumerus 10.8811 -25.444 -89.3375
rradius 44.8409
rwrist -54.4178
rhand -4.84258 -25.6466
rfingers 7.12502
rthumb 20.9447 -54.5358
lclavicle 3.78685e-014 -6.36111e-015
lhumerus 56.2429 23.1681 31.6743
lradius 64.9346
lwrist -23.6465
lhand -44.2968 -37.7181
lfingers 7.12502
lthumb -17.1069 -8.45123
rfemur -10.1174 7.62372 0.20166
rtibia 1.3506
rfoot -10.7375 -14.0972
rtoes -18.6732
lfemur -5.15762 -6.15389 -16.4212
ltibia 13.7281
lfoot 0 0
ltoes 0
231
root 7.93062 17.2743 3.38613 -150.228 -39.4899 157.702
lowerback -3.15821 0.349423 -7.09661
upperback -5.59876 0.334101 4.31274
thorax -4.18158 0.445241 8.57833
lowerneck -7.06893 -0.166807 -1.47627
upperneck -10.7202 -1.46821 -7.37763
head -2.26113 -0.88061 -2.10943
rclavicle 3.80673e-014 9.22361e-014
rhumerus 10.5546 -24.9157 -89.1523
rradius 45.1326
rwrist -54.5514
rhand -5.34179 -26.3835
rfingers 7.12502
rthumb 20.465 -55.325
lclavicle 3.80673e-014 9.22361e-014
lhumerus 55.9388 23.402 31.5865
lradius 64.869
lwrist -23.6557
lhand -44.0183 -37.7771
lfingers 7.12502
lthumb -16.8388 -8.48719
rfemur -10.135 7.55391 0.521003
rtibia 1.26702
rfoot -10.3899 -13.8413
rtoes -20.1321
lfemur -5.20052 -5.84472 -16.1241
ltibia 13.7529
lfoot 0 0
ltoes 0
232
root 7.93182 17.2718 3.36669 -150.609 -39.1863 157.999
lowerback -3.20498 0.384111 -7.01089
upperback -5.46299 0.389724 4.43322
thorax -4.02175 0.461602 8.65771
lowerneck -7.13182 0.00599184 -0.921579
upperneck -10.6703 -1.29415 -7.81758
head -2.23748 -0.812602 -2.35466
rclavicle 5.84427e-014 4.45278e-014
rhumerus 10.1654 -24.409 -89.0048
rradius 45.4744
rwrist -54.9608
rhand -5.73601 -27.0366
rfingers 7.12502
rthumb 20.0861 -56.0183
lclavicle 5.84427e-014 4.45278e-014
lhumerus 55.82 23.5048 31.7318
lradius 64.7349
lwrist -23.9005
lhand -43.951 -38.6171
lfingers 7.12502
lthumb -16.774 -9.32173
rfemur -10.1266 7.49015 0.763418
rtibia 1.44489
rfoot -10.1849 -13.3046
rtoes -20.5439
lfemur -4.94731 -5.48902 -15.9769
ltibia 13.7027
lfoot 0 0
ltoes 0
233
root 7.93563 17.2699 3.34984 -150.908 -38.6838 158.058
lowerback -3.1774 0.451632 -7.20992
upperback -5.3136 0.490746 4.45509
thorax -3.90486 0.51433 8.79627
lowerneck -7.15178 -0.00267222 -0.981225
upperneck -10.6314 -1.29978 -7.80829
head -2.22078 -0.815478 -2.34039
rclavicle 4.91992e-014 1.145e-013
rhumerus 9.77219 -24.0999 -88.9878
rradius 45.8328
rwrist -55.1505
rhand -5.62461 -27.3564
rfingers 7.12502
rthumb 20.1932 -56.3268
lclavicle 4.91992e-014 1.145e-013
lhumerus 55.9419 23.4157 32.1322
lradius 64.4592
lwrist -24.4445
lhand -44.4505 -39.0903
lfingers 7.12502
lthumb -17.2549 -9.83636
rfemur -10.15 7.5196 0.732308
rtibia 1.71847
rfoot -10.0685 -12.744
rtoes -19.8669
lfemur -4.58674 -5.22129 -16.185
ltibia 13.6482
lfoot 0 0
ltoes 0
234
root 7.9376 17.2663 3.34003 -151.104 -38.3746 158.1
lowerback -3.16553 0.480186 -7.22441
upperback -5.19794 0.536298 4.46386
thorax -3.79824 0.531675 8.81282
lowerneck -7.07834 -0.0420907 -1.04897
upperneck -10.6335 -1.34991 -7.78481
head -2.23538 -0.836442 -2.32052
rclavicle 6.15239e-014 4.77083e-014
rhumerus 9.48233 -23.9412 -89.0702
rradius 46.0719
rwrist -55.0139
rhand -5.28814 -27.2208
rfingers 7.12502
rthumb 20.5165 -56.1567
lclavicle 6.15239e-014 4.77083e-014
lhumerus 56.0537 23.4154 32.361
lradius 64.2014
lwrist -24.7228
lhand -44.7926 -38.9314
lfingers 7.12502
lthumb -17.5841 -9.70657
rfemur -10.1615 7.58732 0.735957
rtibia 1.88409
rfoot -9.90917 -12.3916
rtoes -18.3458
lfemur -4.38849 -5.0685 -16.3325
ltibia 13.6213
lfoot 0 0
ltoes 0
